<mxfile host="app.diagrams.net" modified="2023-03-27T14:13:00.209Z" agent="Mozilla/5.0 (Windows NT 10.0; Win64; x64) AppleWebKit/537.36 (KHTML, like Gecko) Chrome/83.0.4103.116 Safari/537.36" version="21.1.1" etag="NTnacYvsQ9xtuGJe5ksW" type="github">
  <diagram name="페이지-1" id="wOmbbLgwanUtaBGnp9fk">
    <mxGraphModel>
      <root>
        <mxCell id="0" />
        <mxCell id="1" parent="0" />
      </root>
    </mxGraphModel>
  </diagram>
</mxfile>
